<?xml version="1.0" encoding="utf-8"?>
<!-- Generator: Adobe Illustrator 21.1.0, SVG Export Plug-In . SVG Version: 6.00 Build 0)  -->
<svg version="1.1" id="Layer_3" xmlns="http://www.w3.org/2000/svg" xmlns:xlink="http://www.w3.org/1999/xlink" x="0px" y="0px"
	 viewBox="0 0 289 10" style="enable-background:new 0 0 289 10;" xml:space="preserve">
<style type="text/css">
	.st0{fill:#FFFFFF;}
</style>
<g>
	<path class="st0" d="M5.1,2.7c-0.6,0-1,0.2-1.3,0.7S3.3,4.5,3.3,5.3c0,1.6,0.6,2.5,1.9,2.5c0.4,0,0.7-0.1,1.1-0.2S7,7.3,7.4,7.2v2
		C6.6,9.5,5.8,9.6,4.9,9.6c-1.3,0-2.3-0.4-3-1.1s-1-1.8-1-3.3c0-0.9,0.2-1.7,0.5-2.3s0.8-1.2,1.4-1.5s1.4-0.5,2.2-0.5
		C6,0.8,6.9,1,7.7,1.4L7,3.2C6.7,3.1,6.4,3,6.1,2.9S5.4,2.7,5.1,2.7z"/>
	<path class="st0" d="M14.3,9.5l-0.4-1.6h-2.8l-0.4,1.6H8.1l2.8-8.6H14l2.8,8.6H14.3z M13.4,6L13,4.6c-0.1-0.3-0.2-0.7-0.3-1.2
		s-0.2-0.9-0.2-1.1c0,0.2-0.1,0.5-0.2,1S11.9,4.7,11.6,6H13.4z"/>
	<path class="st0" d="M20.1,6.4v3.1h-2.3V0.9h2.8c2.3,0,3.5,0.8,3.5,2.5c0,1-0.5,1.8-1.5,2.3l2.5,3.7h-2.6l-1.8-3.1H20.1z M20.1,4.6
		h0.4c0.8,0,1.2-0.4,1.2-1.1c0-0.6-0.4-0.9-1.2-0.9h-0.5V4.6z"/>
	<path class="st0" d="M29.3,4.5H33v4.6c-1,0.3-2.1,0.5-3.3,0.5c-1.3,0-2.3-0.4-3.1-1.1s-1.1-1.9-1.1-3.3c0-1.4,0.4-2.5,1.2-3.2
		s1.9-1.2,3.3-1.2c0.5,0,1,0.1,1.5,0.2s0.9,0.2,1.3,0.4l-0.7,1.8c-0.6-0.3-1.3-0.5-2-0.5c-0.7,0-1.2,0.2-1.6,0.7s-0.6,1.1-0.6,1.9
		c0,0.8,0.2,1.4,0.5,1.8s0.8,0.6,1.4,0.6c0.3,0,0.7,0,0.9-0.1V6.3h-1.5V4.5z"/>
	<path class="st0" d="M42.8,5.2c0,1.4-0.4,2.5-1.1,3.3S40,9.6,38.6,9.6c-1.3,0-2.4-0.4-3.1-1.1s-1.1-1.9-1.1-3.3
		c0-1.4,0.4-2.5,1.1-3.3s1.7-1.1,3.1-1.1c1.4,0,2.4,0.4,3.1,1.1S42.8,3.8,42.8,5.2z M36.9,5.2c0,1.7,0.6,2.5,1.7,2.5
		c0.6,0,1-0.2,1.3-0.6s0.4-1,0.4-1.9c0-0.9-0.1-1.5-0.4-1.9s-0.7-0.6-1.3-0.6C37.5,2.7,36.9,3.5,36.9,5.2z"/>
	<path class="st0" d="M53,6.9c0,0.5-0.1,1-0.4,1.4s-0.7,0.7-1.2,1s-1.1,0.3-1.8,0.3c-0.6,0-1,0-1.4-0.1S47.5,9.3,47,9.1V7
		c0.4,0.2,0.9,0.4,1.4,0.5s0.9,0.2,1.3,0.2c0.3,0,0.6-0.1,0.8-0.2s0.2-0.3,0.2-0.5c0-0.1,0-0.2-0.1-0.3s-0.2-0.2-0.3-0.3
		S49.8,6.3,49.2,6c-0.6-0.3-1-0.5-1.3-0.7s-0.5-0.5-0.6-0.8s-0.2-0.7-0.2-1.1c0-0.8,0.3-1.4,0.9-1.8s1.4-0.7,2.4-0.7
		c0.9,0,1.8,0.2,2.7,0.6l-0.7,1.8c-0.8-0.4-1.5-0.6-2.1-0.6c-0.3,0-0.5,0.1-0.7,0.2s-0.2,0.2-0.2,0.4c0,0.2,0.1,0.3,0.3,0.5
		s0.6,0.4,1.4,0.7c0.7,0.3,1.3,0.7,1.5,1.1S53,6.3,53,6.9z"/>
	<path class="st0" d="M61.7,9.5h-2.3V6h-2.7v3.5h-2.3V0.9h2.3v3.2h2.7V0.9h2.3V9.5z"/>
	<path class="st0" d="M71.6,5.2c0,1.4-0.4,2.5-1.1,3.3s-1.7,1.1-3.1,1.1c-1.3,0-2.4-0.4-3.1-1.1s-1.1-1.9-1.1-3.3
		c0-1.4,0.4-2.5,1.1-3.3s1.7-1.1,3.1-1.1c1.4,0,2.4,0.4,3.1,1.1S71.6,3.8,71.6,5.2z M65.7,5.2c0,1.7,0.6,2.5,1.7,2.5
		c0.6,0,1-0.2,1.3-0.6s0.4-1,0.4-1.9c0-0.9-0.1-1.5-0.4-1.9S68,2.7,67.4,2.7C66.3,2.7,65.7,3.5,65.7,5.2z"/>
	<path class="st0" d="M75.4,6.4v3.1h-2.3V0.9h2.8c2.3,0,3.5,0.8,3.5,2.5c0,1-0.5,1.8-1.5,2.3l2.5,3.7h-2.6L76,6.4H75.4z M75.4,4.6
		h0.4c0.8,0,1.2-0.4,1.2-1.1c0-0.6-0.4-0.9-1.2-0.9h-0.5V4.6z"/>
	<path class="st0" d="M85,9.5h-2.3V2.8h-2.1V0.9h6.5v1.9H85V9.5z"/>
	<path class="st0" d="M93.9,6.9c0,0.5-0.1,1-0.4,1.4s-0.7,0.7-1.2,1s-1.1,0.3-1.8,0.3c-0.6,0-1,0-1.4-0.1s-0.8-0.2-1.2-0.4V7
		c0.4,0.2,0.9,0.4,1.4,0.5s0.9,0.2,1.3,0.2c0.3,0,0.6-0.1,0.8-0.2s0.2-0.3,0.2-0.5c0-0.1,0-0.2-0.1-0.3s-0.2-0.2-0.3-0.3
		S90.7,6.3,90.1,6c-0.6-0.3-1-0.5-1.3-0.7s-0.5-0.5-0.6-0.8S88,3.7,88,3.3c0-0.8,0.3-1.4,0.9-1.8s1.4-0.7,2.4-0.7
		c0.9,0,1.8,0.2,2.7,0.6l-0.7,1.8c-0.8-0.4-1.5-0.6-2.1-0.6c-0.3,0-0.5,0.1-0.7,0.2s-0.2,0.2-0.2,0.4c0,0.2,0.1,0.3,0.3,0.5
		S91.2,4,92,4.4c0.7,0.3,1.3,0.7,1.5,1.1S93.9,6.3,93.9,6.9z"/>
</g>
</svg>
