<svg xmlns:dc="http://purl.org/dc/elements/1.1/" xmlns:cc="http://creativecommons.org/ns#" xmlns:rdf="http://www.w3.org/1999/02/22-rdf-syntax-ns#" xmlns:svg="http://www.w3.org/2000/svg" xmlns="http://www.w3.org/2000/svg" xmlns:sodipodi="http://sodipodi.sourceforge.net/DTD/sodipodi-0.dtd" xmlns:inkscape="http://www.inkscape.org/namespaces/inkscape" version="1.1" x="0px" y="0px" viewBox="0 0 36 45"><g transform="translate(0,-1016.3622)"><g transform="matrix(1.1275429,0,0,1.1275429,-44.543394,-161.48378)" style="" stroke-width="0.88688422" stroke-miterlimit="4" stroke-dasharray="none"><g transform="matrix(0.95190413,0,0,0.95190413,-110.63322,34.258837)" style="" stroke-width="0.93169489" stroke-miterlimit="4" stroke-dasharray="none"><g transform="translate(0.01454034,0)"><g transform="matrix(0.96174957,0,0,0.96174957,189.82795,82.87613)"><g transform="translate(-71.071429,0.53571429)"><g style="" transform="matrix(1.4626142,0,0,1.4626142,31.448358,-481.54284)" stroke-width="0.66234142" stroke-miterlimit="4" stroke-dasharray="none"><g transform="matrix(0.66234144,0,0,0.66234144,3.2631384,351.32372)"><g transform="matrix(1.2169798,0,0,1.2169798,261.92756,-140.0462)" style="" stroke-width="0.82170633" stroke-miterlimit="4" stroke-dasharray="none"><g transform="matrix(0.84672722,0,0,0.84672722,-213.84556,91.295046)"><path style="text-indent:0;text-transform:none;direction:ltr;block-progression:tb;baseline-shift:baseline;color:#000000;enable-background:accumulate;" d="M 29.9375 2.46875 A 0.50004999 0.50004999 0 0 0 29.875 2.5 L 29.8125 2.5 L 6.03125 2.5 L 6 2.5 A 0.50004999 0.50004999 0 0 0 5.96875 2.5 A 0.50004999 0.50004999 0 0 0 5.84375 2.5 A 0.50004999 0.50004999 0 0 0 5.46875 2.90625 L 4.96875 6.75 L 4.9375 6.78125 A 0.50143031 0.50143031 0 0 0 4.9375 6.84375 A 0.50143031 0.50143031 0 0 0 4.90625 7 A 0.50143031 0.50143031 0 0 0 4.90625 7.0625 L 3.71875 16.03125 A 0.51344396 0.51344396 0 0 0 3.71875 16.09375 L 3.25 19.5 L 3.21875 19.5 A 0.50004999 0.50004999 0 0 0 3.125 19.5 A 0.50004999 0.50004999 0 0 0 2.71875 19.9375 L 2.21875 23.21875 A 0.50554932 0.50554932 0 0 0 2.15625 23.625 L 1 30.9375 A 0.50004999 0.50004999 0 0 0 1.46875 31.53125 L 1.65625 31.53125 L 1.46875 32.9375 A 0.50004999 0.50004999 0 0 0 1.9375 33.5 L 15.96875 33.5 A 0.50004999 0.50004999 0 0 0 16.4375 33.0625 L 17.78125 23.6875 L 18.46875 33.03125 A 0.50004999 0.50004999 0 0 0 19 33.5 L 33.96875 33.5 A 0.50004999 0.50004999 0 0 0 34.4375 32.9375 L 34.25 31.53125 L 34.53125 31.53125 A 0.50004999 0.50004999 0 0 0 35.03125 30.96875 L 33.5 19.9375 A 0.50004999 0.50004999 0 0 0 33 19.5 L 32.84375 19.5 L 30.4375 2.90625 A 0.50004999 0.50004999 0 0 0 29.9375 2.46875 z M 9.15625 3.5 L 25.90625 3.5 C 19.773614 4.8165738 14.200824 4.8158105 9.15625 3.5 z M 29.53125 3.59375 L 29.9375 6.5 L 28.375 6.5 C 28.343351 5.7424551 28.330574 4.8954851 28.34375 3.96875 A 0.50004999 0.50004999 0 0 0 28.34375 3.90625 A 0.50004999 0.50004999 0 0 0 28.34375 3.875 C 28.737232 3.773234 29.133752 3.7057162 29.53125 3.59375 z M 6.40625 3.625 C 6.7551836 3.7500848 7.11487 3.8566712 7.46875 3.96875 C 7.4719505 3.9697636 7.4655491 3.9989874 7.46875 4 C 7.4812027 4.9131056 7.4687336 5.7495352 7.4375 6.5 L 6.03125 6.5 L 6.40625 3.625 z M 27.34375 4.15625 C 27.334679 4.996446 27.346385 5.7915111 27.375 6.5 L 23.5625 6.5 L 23.5625 6 A 0.50004999 0.50004999 0 0 0 22.9375 5.5 A 0.50004999 0.50004999 0 0 0 22.5625 6 L 22.5625 6.5 L 16.0625 6.5 A 0.50004999 0.50004999 0 0 0 15.90625 6.5 L 13 6.5 L 13 6 A 0.50004999 0.50004999 0 0 0 12.375 5.5 A 0.50004999 0.50004999 0 0 0 12 6 L 12 6.5 L 8.4375 6.5 C 8.4646101 5.8273068 8.4754198 5.0698246 8.46875 4.28125 C 14.13477 5.8572632 20.429097 5.806266 27.34375 4.15625 z M 5.875 7.5 L 7.375 7.5 C 7.2430122 9.2314862 6.9754489 10.58331 6.59375 11.625 C 6.1865214 12.736363 5.6197677 13.568999 4.9375 14.4375 L 5.875 7.5 z M 8.34375 7.5 L 12 7.5 L 12 9 A 0.50004999 0.50004999 0 1 0 13 9 L 13 7.5 L 15.25 7.5 L 13.46875 12.875 A 0.50004999 0.50004999 0 1 0 14.40625 13.1875 L 16.3125 7.5 L 19.625 7.5 L 21.46875 13.1875 A 0.50916767 0.50916767 0 1 0 22.4375 12.875 L 20.65625 7.5 L 22.5625 7.5 L 22.5625 9 A 0.50004999 0.50004999 0 1 0 23.5625 9 L 23.5625 7.5 L 27.46875 7.5 C 27.604207 9.3353832 27.853368 10.775695 28.28125 11.9375 C 28.950242 13.753977 29.99309 14.95401 31.21875 16.375 A 0.50004999 0.50004999 0 0 0 31.375 16.5625 A 0.50004999 0.50004999 0 0 0 31.40625 16.5625 L 31.8125 19.5 L 24.96875 19.5 A 0.50004999 0.50004999 0 0 0 24.875 19.5 A 0.50004999 0.50004999 0 0 0 24.46875 20.0625 L 24.78125 23.34375 A 0.50554932 0.50554932 0 0 0 24.8125 23.71875 L 25.46875 31.03125 A 0.50004999 0.50004999 0 0 0 25.9375 31.46875 L 33.25 31.53125 L 33.375 32.5 L 19.4375 32.5 L 18.4375 19.09375 L 18.4375 18.96875 A 0.50004999 0.50004999 0 0 0 17.84375 18.5 A 0.50004999 0.50004999 0 0 0 17.4375 18.9375 L 17.4375 19.0625 L 15.53125 32.5 L 2.53125 32.5 L 2.6875 31.53125 L 9.96875 31.53125 A 0.50004999 0.50004999 0 0 0 10.5 31.0625 L 11.4375 20.0625 A 0.50004999 0.50004999 0 0 0 10.96875 19.5 L 4.28125 19.5 L 4.6875 16.34375 C 5.8793687 14.95882 6.8764157 13.755921 7.53125 11.96875 C 7.959988 10.798706 8.2086299 9.3498911 8.34375 7.5 z M 28.4375 7.5 L 30.09375 7.5 L 31.125 14.75 C 30.313433 13.756995 29.678638 12.842542 29.21875 11.59375 C 28.837254 10.557892 28.569555 9.2239374 28.4375 7.5 z M 3.84375 20.5 L 3.90625 20.5 L 10.40625 20.5 L 10.1875 22.96875 L 3.25 22.96875 L 3.625 20.53125 A 0.50557885 0.50557885 0 0 0 3.84375 20.5 z M 25.53125 20.5 L 32.5625 20.5 L 32.90625 22.96875 L 25.75 22.96875 L 25.53125 20.5 z M 3.09375 23.96875 L 10.09375 23.96875 L 9.53125 30.53125 L 2.46875 30.53125 A 0.50557885 0.50557885 0 0 0 2.0625 30.5 L 3.09375 23.96875 z M 25.84375 23.96875 L 33.0625 23.96875 L 33.96875 30.53125 L 26.4375 30.5 L 25.84375 23.96875 z " transform="matrix(0.97044988,0,0,0.97044988,-0.17520291,1014.4154)" fill="#000000" fill-opacity="1" stroke="none" marker="none" visibility="visible" display="inline" overflow="visible"/></g></g></g></g></g></g></g></g></g></g><text x="0" y="51" fill="#000000" font-size="5px" font-weight="bold" font-family="'Helvetica Neue', Helvetica, Arial-Unicode, Arial, Sans-serif">Created by Chameleon Design</text><text x="0" y="56" fill="#000000" font-size="5px" font-weight="bold" font-family="'Helvetica Neue', Helvetica, Arial-Unicode, Arial, Sans-serif">from the Noun Project</text></svg>