<svg id="Layer_2" data-name="Layer 2" xmlns="http://www.w3.org/2000/svg" xmlns:xlink="http://www.w3.org/1999/xlink" viewBox="0 0 506 506"><defs><style>.cls-1{fill:#166aa3;}.cls-1,.cls-3,.cls-4,.cls-6{stroke:#084272;}.cls-1,.cls-2,.cls-3,.cls-4,.cls-6{stroke-miterlimit:10;}.cls-1,.cls-3{stroke-width:4px;}.cls-2{fill:#333;stroke:#00606f;}.cls-3,.cls-4,.cls-6{fill:none;}.cls-4{stroke-width:2px;}.cls-5{fill:url(#linear-gradient);}</style><linearGradient id="linear-gradient" x1="196" y1="327.25" x2="247.51" y2="327.25" gradientUnits="userSpaceOnUse"><stop offset="0" stop-color="#00003d" stop-opacity="0"/><stop offset="1"/></linearGradient></defs><title>cargo shorts_blue</title><path class="cls-1" d="M91.5,453s21,21,66,13,84-26,84-26l5-81,17,60v48.82s17,25.18,50,28.18,99-15,99-15l6.86-62.58L420.5,408l12-8,5-75-7-57s8.33-33.67,5-42.33-9-10.67-9-10.67V155s4-27.67,3-39.67S410.5,39,410.5,39l4-21s8-9-11-11-114,1-147,5-80,23-127,3c.06-.47-10.81,48.72-15.33,65.67-9.06,33.92-17,42.67-17.33,48.67s-6,77.67-6,77.67S68.5,256,69.5,300s11,75,11,75Z"/><path id="belt" class="cls-2" d="M125.5,20s38,14,66.67,9.33S310.17,8.67,327.5,8s78-4,87.33,4L410.5,39s-30.33-2.33-53.67-1.67S246.83,54,246.83,54s-55.33,4.67-73.33,2-40-5.33-46.67-8.67S125.5,20,125.5,20Z"/><path class="cls-3" d="M419.36,418.42c-26,2-96.86,7.58-96.86,7.58s21-207,15-214,89-8,89-8"/><path class="cls-3" d="M90.9,197h9.6L90.9,380l-10.4-5s-13.84-42.31-11-75S90.9,197,90.9,197Z"/><polygon class="cls-3" points="266.83 10.67 274.5 58 316.5 50 313.5 6 266.83 10.67"/><polygon class="cls-3" points="134.5 18 129.5 64 154.5 68 159.5 24 134.5 18"/><path class="cls-4" d="M194.83,58s-10,92.67-8,105.33c1.32,8.37,4.1,24.59,5.83,34.64l.89,5.16.61,3.53s16,6,24-6,2-42.67,2-42.67L218.83,56.67Z"/><path class="cls-1" d="M348.17,223.33,349.5,278s77.33-2.67,86-11.33,3.67-36.67,2-41.67c-6-9.67-11-10-11-10Z"/><path id="leg_shaddow" data-name="leg shaddow" class="cls-5" d="M196,204.5s2.1,5.38,5.34,13.72l.73,1.88c10.08,26,29.55,76.41,33.44,88.24,5.29,16.11,11,50.67,11,50.67s1.13,12.28,1,21.67c-.08,6-3.58.42-2.92,14.08s2.25,13.92,2.25,13.92L241.5,440l-26,10Z"/><line class="cls-6" x1="194.17" y1="206.67" x2="207.25" y2="234.5"/></svg>